:SAMPLES-PER-SECOND 30
:FULLY-SPECIFIED
:DEGREES
247
root  -41.7872 34.7499 3.23381 -172.142 86.6714 178.673
RightUpLeg  -8.43635 -19.5068 -3.34835
RightLeg  5.77411 -2.16796 -0.0778971
RightFoot  7.10766 0.0419763 -0.10305
RightToes  -30.7595 -0.146612 -0.248264
Spine  -1.73324 0.204712 0.454154
Spine1  -3.51902 0.501628 1.51184
HEad  -38.2428 14.3952 -0.938609
LeftShoulder1  -1.94126e-019 -3.10601e-018 -2.51263e-017
LeftArm  -11.4418 28.6549 -84.0587
LeftForeArm  32.0665 -17.0622 -2.6242
LeftHand  -0.382412 -1.07992 7.00182
RightShoulder  -4.96962e-017 0 -2.36833e-017
RightArm  -22.7592 -23.8418 76.3313
RightForeArm  56.3005 15.1059 1.10932
RightHand  -0.372567 -0.83536 -9.64112
LeftUpLeg  -8.73715 5.8849 2.31244
LeftLeg  5.106 12.3803 0.3047
LeftFoot  7.56384 -0.107733 1.781
LeftToes  -26.6328 2.40056e-006 -7.68412e-008
248
root  -41.7628 34.7659 3.25098 -171.653 86.5296 179.129
RightUpLeg  -8.15313 -19.7067 -3.28806
RightLeg  5.25676 -2.11381 -0.0568671
RightFoot  7.3308 0.0422448 -0.107225
RightToes  -30.7845 -0.146657 -0.24847
Spine  -1.75532 0.277736 0.422538
Spine1  -3.56355 0.656642 1.45487
HEad  -38.5463 14.084 -0.749183
LeftShoulder1  -1.94126e-019 -3.10601e-018 -2.51263e-017
LeftArm  -11.376 28.1723 -84.2681
LeftForeArm  32.4347 -17.2235 -2.65486
LeftHand  -0.390576 -0.960515 7.27314
RightShoulder  -4.96962e-017 0 -2.36833e-017
RightArm  -21.9253 -23.3999 76.3752
RightForeArm  55.7661 15.4646 1.08199
RightHand  -0.371768 -0.879742 -9.61725
LeftUpLeg  -8.5799 5.76332 2.37186
LeftLeg  4.74134 12.381 0.226545
LeftFoot  7.74688 -0.113026 1.82447
LeftToes  -26.6753 2.40056e-006 -7.68412e-008
249
root  -41.7334 34.7788 3.27429 -171.327 86.4073 179.433
RightUpLeg  -7.90669 -19.8157 -3.22954
RightLeg  4.8526 -2.14415 -0.0426067
RightFoot  7.45239 0.0424597 -0.110919
RightToes  -30.632 -0.146683 -0.248671
Spine  -1.7521 0.349887 0.360489
Spine1  -3.55847 0.807215 1.33505
HEad  -38.8656 13.7241 -0.529785
LeftShoulder1  -1.94126e-019 -3.10601e-018 -2.51263e-017
LeftArm  -11.1512 27.3781 -84.2314
LeftForeArm  32.9756 -17.1477 -2.68361
LeftHand  -0.3966 -1.08985 7.24677
RightShoulder  -4.96962e-017 0 -2.36833e-017
RightArm  -21.1722 -22.8438 76.5233
RightForeArm  55.3562 15.6848 1.07232
RightHand  -0.371616 -0.918 -9.59767
LeftUpLeg  -8.42018 5.61504 2.44287
LeftLeg  4.41242 12.3985 0.156267
LeftFoot  7.92619 -0.118293 1.8689
LeftToes  -26.7778 2.40056e-006 -7.68412e-008
250
root  -41.6925 34.7911 3.30162 -171.009 86.2956 179.757
RightUpLeg  -7.64365 -20.0004 -3.17748
RightLeg  4.50007 -2.05878 -0.0282466
RightFoot  7.57413 0.0419013 -0.103811
RightToes  -30.6939 -0.146691 -0.248865
Spine  -1.77799 0.418196 0.311084
Spine1  -3.61092 0.948685 1.24042
HEad  -39.0355 13.395 -0.24157
LeftShoulder1  -1.94126e-019 -3.10601e-018 -2.51263e-017
LeftArm  -10.9336 26.6241 -84.0895
LeftForeArm  33.3294 -17.068 -2.70838
LeftHand  -0.391802 -1.04561 7.17073
RightShoulder  -4.96962e-017 0 -2.36833e-017
RightArm  -20.354 -22.3344 76.6148
RightForeArm  55.338 15.7955 1.06467
RightHand  -0.372553 -0.85506 -9.56973
LeftUpLeg  -8.23453 5.49268 2.52568
LeftLeg  4.12307 12.4299 0.0944129
LeftFoot  8.06113 -0.122901 1.90561
LeftToes  -26.6508 2.40056e-006 -7.68412e-008
251
root  -41.6613 34.8 3.32429 -170.949 86.2265 179.826
RightUpLeg  -7.44559 -19.9365 -3.15549
RightLeg  4.25973 -2.19025 -0.0209479
RightFoot  7.60009 0.0429986 -0.120582
RightToes  -30.5443 -0.146681 -0.249051
Spine  -1.79574 0.466492 0.258724
Spine1  -3.6476 1.05001 1.13799
HEad  -39.3171 13.0536 -0.0177803
LeftShoulder1  -1.94126e-019 -3.10601e-018 -2.51263e-017
LeftArm  -10.6164 25.9521 -83.8551
LeftForeArm  33.4511 -17.3558 -2.77683
LeftHand  -0.386556 -1.07676 7.07958
RightShoulder  -4.96962e-017 0 -2.36833e-017
RightArm  -19.416 -21.7465 76.7184
RightForeArm  55.3286 15.8631 1.06049
RightHand  -0.372674 -0.949353 -9.56362
LeftUpLeg  -8.03176 5.11397 2.58625
LeftLeg  3.8704 12.5278 0.0403741
LeftFoot  8.33403 -0.131639 1.98283
LeftToes  -28.8699 2.40056e-006 -7.68412e-008
252
root  -41.6255 34.8088 3.35378 -170.657 86.0821 -179.89
RightUpLeg  -7.24789 -20.0217 -3.0967
RightLeg  4.01825 -2.24249 -0.0120497
RightFoot  7.62348 0.0433952 -0.12752
RightToes  -30.4872 -0.146657 -0.249228
Spine  -1.83225 0.482492 0.226589
Spine1  -3.72069 1.08559 1.07736
HEad  -39.6476 12.3626 0.0272907
LeftShoulder1  -1.94126e-019 -3.10601e-018 -2.51263e-017
LeftArm  -10.0914 25.4285 -83.589
LeftForeArm  33.4387 -17.9094 -2.86776
LeftHand  -0.383591 -1.00458 7.16017
RightShoulder  -4.96962e-017 0 -2.36833e-017
RightArm  -18.8054 -21.2664 76.8241
RightForeArm  55.3395 15.944 1.05541
RightHand  -0.373538 -0.881262 -9.54898
LeftUpLeg  -7.89501 4.96683 2.66997
LeftLeg  3.63328 12.5363 -0.0110354
LeftFoot  8.45396 -0.136837 2.01282
LeftToes  -28.9958 2.40056e-006 -7.68412e-008
